# This file uses centimeters as units for non-parametric coordinates.

mtllib FLOOR.mtl
g default
v -30.390681 -0.982188 57.821557
v 44.740374 -0.982188 57.821557
v -30.390681 -0.982188 -61.745500
v 44.740374 -0.982188 -61.745500
vt 0.000000 0.000000
vt 1.000000 0.000000
vt 0.000000 1.000000
vt 1.000000 1.000000
vn 0.000000 1.000000 0.000000
vn 0.000000 1.000000 0.000000
vn 0.000000 1.000000 0.000000
vn 0.000000 1.000000 0.000000
s off
g pPlane1
usemtl initialShadingGroup
f 2/2/1 4/4/2 3/3/3 1/1/4
